<svg width="20" height="20" viewBox="0 0 20 20" fill="none" xmlns="http://www.w3.org/2000/svg">
<path fill-rule="evenodd" clip-rule="evenodd" d="M19.4939 4.32754C19.3992 4.09348 19.1956 3.92081 18.9493 3.86555C18.7029 3.81029 18.4451 3.87948 18.2595 4.05067L14.3852 7.62597L12.7288 7.27027L12.3731 5.61384L15.9484 1.73955C16.1196 1.55395 16.1888 1.29615 16.1335 1.04978C16.0783 0.803415 15.9056 0.599862 15.6715 0.505162C13.5377 -0.358024 11.1143 -0.103978 9.20587 1.18297C7.29742 2.46992 6.15358 4.62139 6.15403 6.92322C6.15279 7.88043 6.34916 8.82759 6.73085 9.7054L0.942488 14.7103C0.928068 14.7218 0.914609 14.7352 0.90115 14.7477C-0.300381 15.9493 -0.300381 17.8973 0.90115 19.0989C2.10268 20.3004 4.05075 20.3004 5.25228 19.0989C5.26477 19.0864 5.27823 19.072 5.28977 19.0585L10.2937 13.2682C12.4351 14.2082 14.9064 14.0033 16.8638 12.7235C18.8212 11.4436 20 9.2619 19.9977 6.92322C19.9992 6.03356 19.8281 5.15205 19.4939 4.32754ZM13.0758 12.3068C12.1655 12.3056 11.2703 12.0741 10.4734 11.6339C10.1553 11.4581 9.7575 11.5291 9.51976 11.8041L4.14575 18.0279C3.54099 18.6025 2.58848 18.5903 1.99864 18.0004C1.40879 17.4106 1.39659 16.4581 1.97115 15.8533L8.1902 10.4803C8.46565 10.2424 8.53665 9.84402 8.36036 9.52563C7.35989 7.71613 7.48415 5.49353 8.68007 3.80682C9.87599 2.12011 11.9322 1.26735 13.9709 1.61265L10.9714 4.86302C10.8021 5.04674 10.7325 5.30128 10.7849 5.54559L11.329 8.07685C11.3926 8.37257 11.6236 8.60356 11.9193 8.66713L14.4525 9.21126C14.6968 9.26366 14.9514 9.19411 15.1351 9.02476L18.3854 6.02531C18.6477 7.58781 18.2092 9.18657 17.1864 10.3966C16.1636 11.6066 14.6602 12.3052 13.0758 12.3068Z" fill="#637587"/>
</svg>
