<svg width="18" height="20" viewBox="0 0 18 20" fill="none" xmlns="http://www.w3.org/2000/svg">
<path fill-rule="evenodd" clip-rule="evenodd" d="M17.7957 14.2468C17.2753 13.3504 16.5018 10.8141 16.5018 7.5013C16.5018 3.35845 13.1433 0 9.00047 0C4.85762 0 1.49918 3.35845 1.49918 7.5013C1.49918 10.815 0.724667 13.3504 0.204264 14.2468C-0.0662289 14.7107 -0.0681962 15.2837 0.199106 15.7494C0.466408 16.2151 0.962217 16.5025 1.49918 16.5029H5.32577C5.68257 18.2487 7.21852 19.5025 9.00047 19.5025C10.7824 19.5025 12.3184 18.2487 12.6752 16.5029H16.5018C17.0386 16.5021 17.5341 16.2147 17.8011 15.749C18.0682 15.2834 18.0662 14.7105 17.7957 14.2468ZM9.00047 18.0031C8.04705 18.0028 7.19729 17.4017 6.87948 16.5029H11.1215C10.8037 17.4017 9.95389 18.0028 9.00047 18.0031ZM1.49918 15.0026C2.22118 13.7611 2.99944 10.8844 2.99944 7.5013C2.99944 4.18702 5.68619 1.50026 9.00047 1.50026C12.3148 1.50026 15.0015 4.18702 15.0015 7.5013C15.0015 10.8816 15.7779 13.7583 16.5018 15.0026H1.49918Z" fill="#121417"/>
</svg>
